<svg xmlns="http://www.w3.org/2000/svg" width="600" height="260" viewBox="0 0 600 260"><text x="300" y="28" fill="#0f766e" font-family="Inter, Arial, sans-serif" font-size="20" font-weight="600" text-anchor="middle">CSV Format Example</text><rect width="400" height="36" x="100" y="50" fill="#e5e5e5"/><rect width="400" height="180" x="100" y="50" fill="none" stroke="#a0a0a0" stroke-width="1"/><line x1="100" x2="100" y1="50" y2="230" stroke="#a0a0a0" stroke-width="1"/><line x1="250" x2="250" y1="50" y2="230" stroke="#a0a0a0" stroke-width="1"/><line x1="400" x2="400" y1="50" y2="230" stroke="#a0a0a0" stroke-width="1"/><line x1="500" x2="500" y1="50" y2="230" stroke="#a0a0a0" stroke-width="1"/><line x1="100" x2="500" y1="86" y2="86" stroke="#a0a0a0" stroke-width="1"/><line x1="100" x2="500" y1="122" y2="122" stroke="#a0a0a0" stroke-width="1"/><line x1="100" x2="500" y1="158" y2="158" stroke="#a0a0a0" stroke-width="1"/><line x1="100" x2="500" y1="194" y2="194" stroke="#a0a0a0" stroke-width="1"/><line x1="100" x2="500" y1="230" y2="230" stroke="#a0a0a0" stroke-width="1"/><text x="125" y="76" fill="#000" font-family="Inter, Arial" font-size="14" font-weight="600">Node1</text><text x="275" y="76" fill="#000" font-family="Inter, Arial" font-size="14" font-weight="600">Node2</text><text x="430" y="76" fill="#000" font-family="Inter, Arial" font-size="14" font-weight="600">Score</text><text x="125" y="110" fill="#000" font-family="Courier New, monospace" font-size="13">ENSG00000185013</text><text x="275" y="110" fill="#000" font-family="Courier New, monospace" font-size="13">ENSG00000076685</text><text x="430" y="110" fill="#000" font-family="Courier New, monospace" font-size="13">0.999</text><text x="125" y="146" fill="#000" font-family="Courier New, monospace" font-size="13">ENSG00000166548</text><text x="275" y="146" fill="#000" font-family="Courier New, monospace" font-size="13">ENSG00000156136</text><text x="430" y="146" fill="#000" font-family="Courier New, monospace" font-size="13">0.987</text><text x="125" y="182" fill="#000" font-family="Courier New, monospace" font-size="13">ENSG00000114956</text><text x="275" y="182" fill="#000" font-family="Courier New, monospace" font-size="13">ENSG00000116981</text><text x="430" y="182" fill="#000" font-family="Courier New, monospace" font-size="13">0.973</text><text x="125" y="218" fill="#000" font-family="Courier New, monospace" font-size="13">MAPT</text><text x="275" y="218" fill="#000" font-family="Courier New, monospace" font-size="13">LRRK2</text><text x="430" y="218" fill="#000" font-family="Courier New, monospace" font-size="13">0.945</text><text x="5" y="250" fill="#0f766e" font-family="Inter, Arial" font-size="12">Edges weighted by interaction score. Nodes are genes (Ensembl ID and HGNC symbol both accepted)</text></svg>